<svg width="1205" height="628" viewBox="0 0 1205 628" fill="none" xmlns="http://www.w3.org/2000/svg">
<path d="M497.615 304.379H523.175V310.414H497.615V304.379ZM498.254 326.46H527.222V332.637H491.154V282.937H526.228V289.114H498.254V326.46ZM550.718 332.637V289.114H533.678V282.937H574.787V289.114H557.747V332.637H550.718ZM620.292 282.937H627.392V332.637H620.292V282.937ZM591.75 332.637H584.65V282.937H591.75V332.637ZM620.931 310.485H591.04V304.308H620.931V310.485ZM666.834 333.205C663 333.205 659.473 332.589 656.255 331.359C653.036 330.081 650.243 328.306 647.877 326.034C645.51 323.714 643.664 321.016 642.339 317.94C641.013 314.863 640.351 311.479 640.351 307.787C640.351 304.095 641.013 300.71 642.339 297.634C643.664 294.557 645.51 291.883 647.877 289.611C650.291 287.291 653.107 285.516 656.326 284.286C659.544 283.008 663.094 282.369 666.976 282.369C670.904 282.369 674.502 283.008 677.768 284.286C681.034 285.564 683.803 287.481 686.075 290.037L681.673 294.439C679.637 292.451 677.413 291.007 674.999 290.108C672.632 289.161 670.052 288.688 667.26 288.688C664.42 288.688 661.769 289.161 659.308 290.108C656.894 291.054 654.787 292.38 652.989 294.084C651.237 295.788 649.865 297.823 648.871 300.19C647.924 302.509 647.451 305.041 647.451 307.787C647.451 310.485 647.924 313.017 648.871 315.384C649.865 317.703 651.237 319.738 652.989 321.49C654.787 323.194 656.894 324.519 659.308 325.466C661.722 326.412 664.349 326.886 667.189 326.886C669.839 326.886 672.372 326.483 674.786 325.679C677.247 324.827 679.519 323.43 681.602 321.49L685.649 326.886C683.187 328.968 680.3 330.554 676.987 331.643C673.721 332.684 670.336 333.205 666.834 333.205ZM678.833 325.963V307.503H685.649V326.886L678.833 325.963ZM700.378 332.637V279.955H707.194V332.637H700.378ZM738.456 333.063C734.669 333.063 731.308 332.234 728.374 330.578C725.439 328.921 723.12 326.649 721.416 323.762C719.712 320.827 718.86 317.514 718.86 313.822C718.86 310.082 719.712 306.769 721.416 303.882C723.12 300.994 725.439 298.746 728.374 297.137C731.308 295.48 734.669 294.652 738.456 294.652C742.195 294.652 745.532 295.48 748.467 297.137C751.449 298.746 753.768 300.994 755.425 303.882C757.129 306.722 757.981 310.035 757.981 313.822C757.981 317.561 757.129 320.874 755.425 323.762C753.768 326.649 751.449 328.921 748.467 330.578C745.532 332.234 742.195 333.063 738.456 333.063ZM738.456 327.099C740.87 327.099 743.023 326.554 744.917 325.466C746.857 324.377 748.372 322.839 749.461 320.851C750.549 318.815 751.094 316.472 751.094 313.822C751.094 311.124 750.549 308.804 749.461 306.864C748.372 304.876 746.857 303.337 744.917 302.249C743.023 301.16 740.87 300.616 738.456 300.616C736.042 300.616 733.888 301.16 731.995 302.249C730.101 303.337 728.587 304.876 727.451 306.864C726.315 308.804 725.747 311.124 725.747 313.822C725.747 316.472 726.315 318.815 727.451 320.851C728.587 322.839 730.101 324.377 731.995 325.466C733.888 326.554 736.042 327.099 738.456 327.099ZM789.488 333.063C786.269 333.063 783.358 332.353 780.755 330.933C778.199 329.465 776.164 327.312 774.649 324.472C773.182 321.632 772.448 318.082 772.448 313.822C772.448 309.562 773.205 306.012 774.72 303.172C776.282 300.332 778.341 298.202 780.897 296.782C783.5 295.362 786.364 294.652 789.488 294.652C793.18 294.652 796.446 295.456 799.286 297.066C802.126 298.675 804.374 300.923 806.031 303.811C807.688 306.651 808.516 309.988 808.516 313.822C808.516 317.656 807.688 321.016 806.031 323.904C804.374 326.791 802.126 329.039 799.286 330.649C796.446 332.258 793.18 333.063 789.488 333.063ZM769.537 332.637V279.955H776.353V305.018L775.643 313.751L776.069 322.484V332.637H769.537ZM788.92 327.099C791.334 327.099 793.488 326.554 795.381 325.466C797.322 324.377 798.836 322.839 799.925 320.851C801.061 318.815 801.629 316.472 801.629 313.822C801.629 311.124 801.061 308.804 799.925 306.864C798.836 304.876 797.322 303.337 795.381 302.249C793.488 301.16 791.334 300.616 788.92 300.616C786.553 300.616 784.4 301.16 782.459 302.249C780.566 303.337 779.051 304.876 777.915 306.864C776.826 308.804 776.282 311.124 776.282 313.822C776.282 316.472 776.826 318.815 777.915 320.851C779.051 322.839 780.566 324.377 782.459 325.466C784.4 326.554 786.553 327.099 788.92 327.099ZM843.076 332.637V324.685L842.721 323.194V309.633C842.721 306.745 841.869 304.521 840.165 302.959C838.508 301.349 835.999 300.545 832.639 300.545C830.414 300.545 828.237 300.923 826.107 301.681C823.977 302.391 822.178 303.361 820.711 304.592L817.871 299.48C819.811 297.918 822.131 296.734 824.829 295.93C827.574 295.078 830.438 294.652 833.42 294.652C838.579 294.652 842.555 295.906 845.348 298.415C848.14 300.923 849.537 304.757 849.537 309.917V332.637H843.076ZM830.722 333.063C827.929 333.063 825.468 332.589 823.338 331.643C821.255 330.696 819.646 329.394 818.51 327.738C817.374 326.034 816.806 324.117 816.806 321.987C816.806 319.951 817.279 318.105 818.226 316.449C819.22 314.792 820.805 313.467 822.983 312.473C825.207 311.479 828.189 310.982 831.929 310.982H843.857V315.881H832.213C828.805 315.881 826.509 316.449 825.326 317.585C824.142 318.721 823.551 320.093 823.551 321.703C823.551 323.549 824.284 325.04 825.752 326.176C827.219 327.264 829.254 327.809 831.858 327.809C834.414 327.809 836.638 327.241 838.532 326.105C840.472 324.969 841.869 323.312 842.721 321.135L844.07 325.821C843.17 328.045 841.585 329.82 839.313 331.146C837.041 332.424 834.177 333.063 830.722 333.063ZM864.28 332.637V279.955H871.096V332.637H864.28Z" fill="white"/>
<path d="M509.284 444.637L484.77 365.859H494.171L514.401 432.023L535.583 365.859H545.817L566.999 432.023L587.229 365.859H596.63L572.116 444.637H562.001L540.7 378.473L519.399 444.637H509.284ZM597.678 444.637L631.117 365.859H642.303L675.742 444.637H665.865L656.226 421.789H617.194L607.555 444.637H597.678ZM620.645 413.578H652.775L636.71 375.141L620.645 413.578ZM701.864 444.637V374.308H674.375V365.859H738.278V374.308H710.789V444.637H701.864ZM753.204 444.637V365.859H811.157V374.427H762.129V400.845H805.921V409.532H762.129V436.069H811.157V444.637H753.204ZM829.174 444.637V365.859H866.897C874.989 365.859 881.415 368.08 886.175 372.523C891.014 376.965 893.434 382.955 893.434 390.492C893.434 395.569 892.442 399.615 890.459 402.63C888.555 405.644 886.135 407.945 883.2 409.532C880.265 411.039 877.329 412.15 874.394 412.864L895.1 444.637H884.509L865.469 414.411H838.099V444.637H829.174ZM838.099 405.962H865.35C868.206 405.962 871.102 405.525 874.037 404.653C876.972 403.78 879.432 402.233 881.415 400.012C883.478 397.711 884.509 394.538 884.509 390.492C884.509 385.494 882.803 381.567 879.392 378.711C875.981 375.775 871.459 374.308 865.826 374.308H838.099V405.962ZM912.348 444.637V365.859H921.273V436.069H964.232V444.637H912.348ZM1010.87 445.589C1004.92 445.589 999.485 444.557 994.566 442.495C989.648 440.432 985.403 437.536 981.833 433.808C978.343 430.079 975.645 425.795 973.741 420.956C971.837 416.037 970.885 410.801 970.885 405.248C970.885 399.615 971.837 394.379 973.741 389.54C975.645 384.7 978.343 380.416 981.833 376.688C985.403 372.959 989.648 370.063 994.566 368.001C999.485 365.938 1004.92 364.907 1010.87 364.907C1016.82 364.907 1022.25 365.938 1027.17 368.001C1032.09 370.063 1036.3 372.959 1039.79 376.688C1043.36 380.416 1046.09 384.7 1048 389.54C1049.9 394.379 1050.85 399.615 1050.85 405.248C1050.85 410.801 1049.9 416.037 1048 420.956C1046.09 425.795 1043.36 430.079 1039.79 433.808C1036.3 437.536 1032.09 440.432 1027.17 442.495C1022.25 444.557 1016.82 445.589 1010.87 445.589ZM1010.87 436.902C1017.3 436.902 1022.81 435.513 1027.41 432.737C1032.09 429.881 1035.66 426.073 1038.12 421.313C1040.66 416.473 1041.93 411.118 1041.93 405.248C1041.93 399.298 1040.66 393.943 1038.12 389.183C1035.66 384.423 1032.09 380.654 1027.41 377.878C1022.81 375.022 1017.3 373.594 1010.87 373.594C1004.52 373.594 999.009 375.022 994.328 377.878C989.648 380.654 986.038 384.423 983.499 389.183C981.04 393.943 979.81 399.298 979.81 405.248C979.81 411.118 981.04 416.473 983.499 421.313C986.038 426.073 989.648 429.881 994.328 432.737C999.009 435.513 1004.52 436.902 1010.87 436.902ZM1103.69 445.589C1097.74 445.589 1092.3 444.557 1087.39 442.495C1082.47 440.432 1078.22 437.536 1074.65 433.808C1071.16 430.079 1068.47 425.795 1066.56 420.956C1064.66 416.037 1063.71 410.801 1063.71 405.248C1063.71 399.615 1064.66 394.379 1066.56 389.54C1068.47 384.7 1071.16 380.416 1074.65 376.688C1078.22 372.959 1082.47 370.063 1087.39 368.001C1092.3 365.938 1097.74 364.907 1103.69 364.907C1109.64 364.907 1115.07 365.938 1119.99 368.001C1124.91 370.063 1129.12 372.959 1132.61 376.688C1136.18 380.416 1138.91 384.7 1140.82 389.54C1142.72 394.379 1143.67 399.615 1143.67 405.248C1143.67 410.801 1142.72 416.037 1140.82 420.956C1138.91 425.795 1136.18 430.079 1132.61 433.808C1129.12 437.536 1124.91 440.432 1119.99 442.495C1115.07 444.557 1109.64 445.589 1103.69 445.589ZM1103.69 436.902C1110.12 436.902 1115.63 435.513 1120.23 432.737C1124.91 429.881 1128.48 426.073 1130.94 421.313C1133.48 416.473 1134.75 411.118 1134.75 405.248C1134.75 399.298 1133.48 393.943 1130.94 389.183C1128.48 384.423 1124.91 380.654 1120.23 377.878C1115.63 375.022 1110.12 373.594 1103.69 373.594C1097.34 373.594 1091.83 375.022 1087.15 377.878C1082.47 380.654 1078.86 384.423 1076.32 389.183C1073.86 393.943 1072.63 399.298 1072.63 405.248C1072.63 411.118 1073.86 416.473 1076.32 421.313C1078.86 426.073 1082.47 429.881 1087.15 432.737C1091.83 435.513 1097.34 436.902 1103.69 436.902Z" fill="white"/>
<path fill-rule="evenodd" clip-rule="evenodd" d="M411.544 323.396L252.926 419.336C250.304 420.922 247.077 419.615 246.07 417.009L245.755 416.993V415.305C245.755 415.301 245.755 415.297 245.755 415.293L245.755 342.695L291.741 351.007C291.048 346.965 290.775 342.861 290.925 338.763C291.236 336.082 292.281 333.54 293.945 331.416C295.829 328.814 297.913 326.362 300.176 324.082C305.858 318.425 311.83 313.066 318.067 308.028C324.38 302.79 330.68 297.906 335.414 294.287C334.134 293.734 332.901 293.079 331.727 292.328C330.056 291.213 328.779 289.599 328.081 287.715C327.407 285.97 326.986 284.138 326.829 282.273C326.535 278.295 326.654 274.296 327.183 270.341C327.455 267.906 327.836 265.539 328.203 263.444L327.346 263.757C324.721 264.742 321.975 265.373 319.183 265.634C316.048 265.964 312.886 265.343 310.108 263.852C305.306 261.103 302.925 256.083 301.7 252.002C299.659 254.614 297.224 257.621 294.666 260.559C291.444 264.394 287.903 267.948 284.081 271.185C282.467 272.534 280.666 273.643 278.734 274.477C277.637 274.978 276.434 275.199 275.231 275.123C274.028 275.047 272.862 274.676 271.837 274.042C270.681 273.224 269.807 272.07 269.333 270.736C268.928 269.626 268.663 268.47 268.544 267.294C268.296 264.556 268.296 261.801 268.544 259.063C269.153 251.964 270.134 244.902 271.483 237.906C272.571 231.961 273.796 226.124 274.857 221.253C271.376 223.652 267.357 225.152 263.156 225.621C260.801 225.711 258.49 224.959 256.639 223.498C254.841 222.11 253.244 220.48 251.891 218.655C248.854 214.488 246.221 210.042 244.027 205.376C242.789 202.873 241.66 200.369 240.653 198.029C240.163 199.662 239.619 201.376 239.048 203.118C237.566 207.633 235.747 212.031 233.606 216.274C231.646 219.988 229.021 223.934 225.592 225.798C219.715 228.954 213.361 227.009 208.83 224.75C208.974 225.257 209.121 225.776 209.271 226.305C210.374 230.19 211.635 234.633 212.749 239.172C214.382 245.429 215.573 251.794 216.313 258.219C216.614 260.809 216.614 263.425 216.313 266.015C216.218 267.305 215.848 268.56 215.228 269.695C214.609 270.831 213.754 271.821 212.721 272.6C211.676 273.233 210.499 273.616 209.281 273.72C208.064 273.824 206.838 273.645 205.701 273.199C203.634 272.435 201.704 271.341 199.987 269.961C195.988 266.732 192.307 263.128 188.994 259.199C186.395 256.233 183.933 253.253 181.878 250.532C180.962 253.797 179.251 256.784 176.899 259.226C175.073 260.972 172.911 262.328 170.543 263.21C168.176 264.092 165.653 264.482 163.13 264.355C160.596 264.305 158.076 263.963 155.62 263.335C159.715 274.287 158.667 282.532 155.511 288.491C154.175 291.018 152.386 293.278 150.232 295.158L152.627 297.198C153.026 297.537 153.439 297.887 153.865 298.248L153.906 298.282L153.907 298.283C157.669 301.47 162.412 305.488 167.198 309.702C172.545 314.409 178.014 319.225 182.314 323.307C182.437 323.429 182.559 323.55 182.681 323.67C182.948 323.932 183.211 324.191 183.471 324.447C185.098 326.048 186.574 327.502 187.756 328.749C188.49 329.511 189.143 330.232 189.674 330.872C190.227 331.514 190.706 332.217 191.103 332.967C192.099 335.334 192.527 337.901 192.354 340.463C192.264 343.051 191.987 345.629 191.524 348.177C191.361 349.157 191.184 350.109 190.994 350.994L236.694 341.851V416.966L236.413 416.97C235.448 419.635 232.177 420.989 229.528 419.382L74.3281 325.253L71.3384 323.439C68.4883 321.71 67.594 317.989 69.3472 315.154L238.013 42.3705C239.972 39.2019 244.584 39.2118 246.529 42.3887L413.555 315.128C415.292 317.965 414.39 321.674 411.544 323.396ZM228.531 410.317L77.6206 317.321L242.245 51.0375L405.318 317.239L253.918 410.276V352.463L303.863 361.552L301.061 354.681V354.545C301.061 354.449 301.01 354.319 300.945 354.152C300.909 354.059 300.868 353.954 300.829 353.837C300.625 353.171 300.34 352.164 300.068 350.817C299.298 346.949 298.992 343.003 299.156 339.062C299.211 338.788 299.302 338.522 299.428 338.273C299.795 337.511 300.227 336.783 300.721 336.096C302.369 333.846 304.188 331.726 306.163 329.756C311.595 324.301 317.308 319.133 323.278 314.273C329.564 309.062 335.822 304.191 340.543 300.668C342.883 298.885 344.843 297.416 346.217 296.409C346.609 296.119 350.002 293.146 352.871 290.631L352.872 290.63C354.974 288.788 356.796 287.191 356.951 287.076L357.346 286.787L357.468 286.777H357.36L357.346 286.787L344.462 287.838H344.298C343.791 287.926 343.275 287.957 342.761 287.933C340.36 287.739 338.052 286.918 336.067 285.552C335.86 285.319 335.702 285.046 335.605 284.75C335.226 283.721 334.993 282.645 334.911 281.552C334.678 278.167 334.788 274.766 335.237 271.403C335.673 267.743 336.326 264.192 336.87 261.552C337.128 260.192 337.373 259.144 337.55 258.396C337.55 258.353 337.55 258.33 337.553 258.306C337.557 258.278 337.565 258.25 337.583 258.188C337.615 258.076 337.68 257.852 337.809 257.308L339.169 248.301L331.509 252.382L331.006 252.519L330.978 252.535C330.625 252.738 330.118 253.031 329.482 253.362C327.817 254.236 326.094 254.995 324.326 255.634C322.378 256.358 320.342 256.815 318.271 256.995C316.763 257.198 315.228 256.947 313.863 256.274C311.428 254.913 309.782 251.702 308.884 247.92C308.513 246.386 308.259 244.826 308.122 243.253C308.122 242.859 308.088 242.509 308.06 242.223L308.06 242.223C308.045 242.065 308.031 241.927 308.027 241.811C308.02 241.645 307.808 238.852 307.601 236.137L307.601 236.134C307.403 233.527 307.21 230.994 307.21 230.927V230.859L302.04 236.94L300.612 238.94L300.421 239.213L299.673 240.233C299.034 241.104 298.095 242.369 296.952 243.866C294.666 246.859 291.51 250.791 288.272 254.573C285.372 258.032 282.187 261.241 278.748 264.165C278.018 264.771 277.24 265.317 276.422 265.797V265.688C276.221 263.457 276.221 261.212 276.422 258.981C277.001 252.192 277.941 245.439 279.238 238.75C280.598 231.485 282.095 224.356 283.319 219.022C283.523 218.108 284.111 215.607 284.588 213.577C284.878 212.344 285.127 211.285 285.224 210.859L276.204 208.873C275.36 209.703 274.313 210.669 273.102 211.594C269.809 214.315 265.918 216.532 262.313 216.818C261.901 216.721 261.522 216.52 261.211 216.233C260.032 215.307 258.988 214.222 258.109 213.009C255.4 209.277 253.054 205.295 251.102 201.118C248.898 196.628 247.02 192.097 245.66 188.669C245.093 187.252 244.621 186.025 244.267 185.104L244.266 185.101C244.195 184.917 244.129 184.746 244.068 184.587L243.646 183.444L238.884 169.989L235.81 183.921V184.179C235.81 184.318 235.76 184.493 235.7 184.704C235.66 184.844 235.616 184.999 235.578 185.172C235.513 185.432 235.441 185.725 235.362 186.049L235.361 186.051C235.173 186.815 234.944 187.75 234.667 188.818C233.864 191.88 232.721 195.975 231.306 200.206C229.981 204.318 228.348 208.325 226.422 212.192C224.504 215.866 222.844 217.798 221.755 218.383C219.293 219.743 215.538 218.941 211.211 216.505C209.465 215.502 207.796 214.37 206.218 213.118C205.592 212.628 205.102 212.206 204.762 211.907L204.395 211.58L204.3 211.498L197.633 215.757V215.866C197.687 215.994 197.733 216.126 197.769 216.26L198.273 217.825C198.708 219.185 199.32 221.117 200.028 223.458C200.221 224.125 200.425 224.824 200.637 225.551C201.916 229.937 203.49 235.336 204.844 240.845C206.379 246.733 207.507 252.72 208.218 258.763C208.438 260.712 208.438 262.679 208.218 264.627C208.218 264.859 208.218 265.049 208.123 265.199C206.965 264.699 205.88 264.044 204.898 263.253C201.343 260.36 198.072 257.135 195.13 253.621C191.783 249.797 188.64 245.798 186.341 242.736C185.184 241.213 184.245 239.934 183.62 239.036L182.871 237.988L182.681 237.716L175.552 227.526L175.007 240.178C174.844 247.689 172.939 251.553 170.926 253.539C169.866 254.511 168.617 255.254 167.257 255.722C165.897 256.19 164.455 256.373 163.021 256.26C159.819 256.13 156.659 255.487 153.661 254.355C152.3 253.879 151.239 253.403 150.477 252.995L149.62 252.587L149.416 252.478L136.913 245.838L143.919 258.083C151.878 272.192 150.518 280.355 148.137 284.75C147.091 286.715 145.634 288.432 143.865 289.783C143.334 290.19 142.775 290.558 142.191 290.886L141.756 291.117H141.688L135.552 293.756L140.695 298.042L141.144 298.423L142.504 299.525L147.185 303.484C151.103 306.804 156.341 311.28 161.661 315.933C166.98 320.586 172.368 325.361 176.627 329.293C178.735 331.266 180.504 332.994 181.81 334.368C182.463 335.048 182.967 335.62 183.334 336.055C183.49 336.237 183.636 336.428 183.769 336.627C184.129 337.802 184.259 339.035 184.15 340.259C184.068 342.454 183.831 344.641 183.443 346.803C183.062 349.035 182.599 351.13 182.232 352.667C182.041 353.443 181.892 354.028 181.769 354.49L181.647 354.98V355.103L179.865 361.511L228.531 351.769V410.317ZM59.1732 344.359C57.7057 345.981 57.6037 348.419 58.9305 350.157L238.779 585.849C240.787 588.481 244.751 588.47 246.745 585.828L424.637 350.141C425.954 348.396 425.84 345.959 424.364 344.346C422.896 342.74 420.495 342.402 418.641 343.54L249.184 447.578C247.248 448.775 245.017 449.41 242.742 449.41C240.466 449.41 238.235 448.775 236.299 447.578L64.8936 343.525C63.0334 342.395 60.6334 342.745 59.1732 344.359ZM242.748 578.434L75.1989 358.858L236.381 456.544C238.315 457.739 240.543 458.371 242.816 458.371C245.09 458.371 247.318 457.739 249.252 456.544L408.434 358.926L242.748 578.434ZM256.993 519.686C253.425 518.97 250.211 517.049 247.891 514.244C246.385 512.526 245.287 510.488 244.68 508.285C244.572 507.85 244.49 507.387 244.408 506.925V506.612L243.769 501.346V501.197C243.748 501.062 243.679 500.939 243.576 500.851C243.472 500.762 243.341 500.713 243.204 500.713C243.068 500.713 242.936 500.762 242.833 500.851C242.729 500.939 242.661 501.062 242.64 501.197V501.346L241.987 506.612V506.925C241.919 507.374 241.837 507.836 241.728 508.285C241.189 510.466 240.166 512.499 238.735 514.231C238.019 515.103 237.212 515.897 236.327 516.598C234.369 518.131 232.083 519.189 229.647 519.686L228.463 519.877H228.191L222.749 520.503H222.626C222.482 520.503 222.343 520.56 222.241 520.662C222.139 520.764 222.082 520.903 222.082 521.047C222.082 521.191 222.139 521.33 222.241 521.432C222.343 521.534 222.482 521.591 222.626 521.591H222.98L228.422 522.217H228.694C229.102 522.271 229.497 522.339 229.878 522.421C232.314 522.919 234.601 523.976 236.558 525.509C237.442 526.206 238.25 526.995 238.966 527.863C240.394 529.597 241.417 531.629 241.959 533.809C242.068 534.244 242.15 534.693 242.218 535.169V535.482L242.871 540.747V540.883C242.892 541.018 242.96 541.141 243.064 541.229C243.167 541.318 243.299 541.367 243.436 541.367C243.572 541.367 243.704 541.318 243.807 541.229C243.911 541.141 243.979 541.018 244 540.883V540.747L244.64 535.482V535.169C244.721 534.72 244.803 534.271 244.912 533.809C245.455 531.632 246.472 529.601 247.891 527.863C248.613 526.995 249.424 526.206 250.313 525.509C252.27 523.976 254.557 522.919 256.993 522.421C257.374 522.339 257.769 522.271 258.177 522.217H258.435L263.946 521.591H264.068C264.212 521.591 264.351 521.534 264.453 521.432C264.555 521.33 264.612 521.191 264.612 521.047C264.612 520.903 264.555 520.764 264.453 520.662C264.351 520.56 264.212 520.503 264.068 520.503H263.946L258.435 519.877H258.177L256.993 519.686ZM243.368 521.347C243.304 521.347 243.243 521.322 243.197 521.278C243.174 521.256 243.155 521.23 243.142 521.201C243.136 521.187 243.132 521.173 243.129 521.159C243.125 521.142 243.123 521.125 243.123 521.108C243.123 521.093 243.124 521.078 243.127 521.063C243.131 521.046 243.136 521.03 243.142 521.015C243.155 520.986 243.174 520.96 243.197 520.938C243.243 520.894 243.304 520.869 243.368 520.869C243.431 520.869 243.492 520.894 243.538 520.938C243.561 520.96 243.58 520.986 243.593 521.015C243.605 521.044 243.612 521.076 243.612 521.108C243.612 521.14 243.605 521.172 243.593 521.201C243.587 521.214 243.58 521.227 243.572 521.239C243.562 521.253 243.55 521.266 243.538 521.278C243.492 521.322 243.431 521.347 243.368 521.347ZM293.687 457.428L293.741 457.435C293.756 457.445 293.772 457.455 293.789 457.462L293.687 457.428ZM293.85 457.483L293.789 457.462C293.808 457.471 293.829 457.478 293.85 457.483ZM296.585 457.769L293.741 457.435C293.718 457.419 293.698 457.4 293.681 457.378C293.638 457.325 293.614 457.259 293.614 457.19C293.614 457.122 293.638 457.056 293.681 457.002C293.723 456.949 293.783 456.912 293.85 456.898L296.748 456.558H296.911C297.763 456.44 298.593 456.197 299.374 455.837C299.93 455.586 300.455 455.271 300.938 454.898C301.445 454.5 301.901 454.044 302.299 453.537C302.678 453.075 303.007 452.573 303.279 452.041C303.647 451.286 303.895 450.478 304.013 449.646V449.496L304.353 446.707V446.639C304.353 446.56 304.385 446.484 304.441 446.428C304.497 446.372 304.573 446.34 304.653 446.34C304.732 446.34 304.808 446.372 304.864 446.428C304.92 446.484 304.952 446.56 304.952 446.639V446.707L305.292 449.496V449.646C305.41 450.478 305.658 451.286 306.027 452.041C306.299 452.573 306.627 453.075 307.006 453.537C307.806 454.503 308.809 455.279 309.945 455.809C310.731 456.168 311.566 456.411 312.421 456.53L315.319 456.871H315.387C315.454 456.885 315.514 456.922 315.557 456.975C315.6 457.028 315.623 457.095 315.623 457.163C315.623 457.231 315.6 457.298 315.557 457.351C315.514 457.404 315.454 457.441 315.387 457.456H315.319L312.421 457.796H312.258C311.402 457.916 310.568 458.158 309.782 458.517C308.646 459.047 307.642 459.823 306.843 460.789C306.464 461.251 306.135 461.753 305.864 462.285C305.495 463.04 305.247 463.848 305.129 464.68V464.83L304.789 467.619V467.687C304.789 467.766 304.757 467.842 304.701 467.898C304.645 467.955 304.569 467.986 304.489 467.986C304.41 467.986 304.334 467.955 304.278 467.898C304.222 467.842 304.19 467.766 304.19 467.687V467.619L303.85 464.83V464.68C303.732 463.848 303.484 463.04 303.115 462.285C302.843 461.753 302.515 461.251 302.136 460.789C301.738 460.283 301.281 459.826 300.775 459.428C300.292 459.055 299.767 458.74 299.211 458.49C298.43 458.129 297.6 457.886 296.748 457.769H296.585ZM192.626 461.782C191.916 461.886 191.224 462.092 190.572 462.394C189.878 462.693 189.232 463.092 188.654 463.578C188.259 463.918 187.903 464.302 187.592 464.721C187.213 465.212 186.893 465.746 186.64 466.312C186.306 467.056 186.081 467.844 185.973 468.653V468.789L185.647 471.578V471.646C185.633 471.709 185.597 471.766 185.547 471.807C185.496 471.847 185.433 471.869 185.368 471.869C185.303 471.869 185.24 471.847 185.189 471.807C185.138 471.766 185.103 471.709 185.089 471.646V471.578L184.776 468.789V468.653C184.593 467.222 184.035 465.865 183.157 464.721C182.843 464.305 182.487 463.922 182.096 463.578C181.529 463.089 180.897 462.681 180.218 462.367C179.566 462.067 178.874 461.861 178.164 461.755H178.001L175.28 461.414C175.213 461.4 175.153 461.363 175.11 461.31C175.067 461.257 175.044 461.19 175.044 461.122C175.044 461.054 175.067 460.987 175.11 460.934C175.153 460.881 175.213 460.844 175.28 460.829L178.001 460.489H178.177C178.888 460.383 179.579 460.177 180.232 459.877C180.911 459.563 181.543 459.155 182.109 458.666C182.498 458.319 182.853 457.936 183.171 457.523C184.069 456.391 184.66 455.046 184.885 453.619V453.483L185.198 450.68C185.212 450.616 185.247 450.56 185.298 450.519C185.349 450.478 185.412 450.456 185.477 450.456C185.542 450.456 185.605 450.478 185.656 450.519C185.706 450.56 185.742 450.616 185.756 450.68L186.082 453.483V453.619C186.188 454.423 186.412 455.207 186.749 455.945C186.999 456.518 187.319 457.057 187.701 457.551C188.015 457.967 188.371 458.35 188.762 458.693C189.327 459.185 189.959 459.593 190.64 459.904C191.292 460.206 191.984 460.412 192.694 460.517H192.79L195.511 460.857C195.577 460.871 195.637 460.908 195.68 460.961C195.723 461.015 195.747 461.081 195.747 461.149C195.747 461.218 195.723 461.284 195.68 461.337C195.637 461.39 195.577 461.427 195.511 461.442L192.79 461.782H192.626Z" fill="url(#paint0_linear_163_16955)"/>
<defs>
<linearGradient id="paint0_linear_163_16955" x1="68.8703" y1="80.7948" x2="74.4245" y2="644.124" gradientUnits="userSpaceOnUse">
<stop stop-color="#FC00FF"/>
<stop offset="0.776443" stop-color="#00DBDE"/>
</linearGradient>
</defs>
</svg>
