<svg width="167" height="50" viewBox="0 0 167 50" fill="none" xmlns="http://www.w3.org/2000/svg">
<path fill-rule="evenodd" clip-rule="evenodd" d="M0.121743 0.019043C0.121743 0.019043 11.4289 6.80193 15.1198 14.5246C16.4614 14.1438 17.8713 13.9365 19.3089 13.9365C20.7734 13.9365 22.2091 14.1516 23.5732 14.5462C27.2533 6.81455 38.5815 0.019043 38.5815 0.019043C38.9822 4.42644 38.6075 15.0054 34.1376 23.8543C33.8789 23.3958 33.6296 22.9673 33.3804 22.5567C34.8667 19.3846 35.3005 17.3399 35.3368 13.4396C34.4798 16.9799 33.9795 18.9728 32.4123 21.0541C31.4484 19.6494 30.3277 18.2776 28.5959 16.3478L28.5976 16.2968C29.1732 12.6876 30.0567 10.5141 31.9 6.56581C28.2965 10.9318 26.575 14.4741 26.6267 17.6308L26.5973 17.6013C26.6203 19.3896 27.2115 21.054 28.3514 22.6737L28.5688 20.976L29.5522 21.5971C29.43 21.2141 29.3077 20.895 29.1929 20.5951C29.0687 20.2708 28.9532 19.969 28.8554 19.6332C28.8683 19.6443 28.8812 19.6554 28.8941 19.6665C28.8908 19.6554 28.8876 19.6443 28.8843 19.6332C30.2973 20.8457 31.568 22.2308 33.703 24.6849L33.6748 24.7368L33.647 24.7088C33.7489 25.278 33.8019 25.8568 33.8019 26.4419C33.8019 27.3856 33.664 28.5679 33.4057 29.9021C33.8106 30.1442 34.2097 30.476 34.4692 30.9968C33.9219 31.0063 33.5442 31.0534 33.1269 31.2023C33.1122 31.2654 33.0972 31.3288 33.082 31.3925C34.5642 32.8713 35.2365 33.9202 36.2036 35.883C34.6825 34.5756 33.7207 33.7673 32.6355 33.0985C32.5867 33.2711 32.5364 33.4449 32.4847 33.6197C33.3184 35.1428 33.4796 36.2655 33.098 38.2019C32.3813 37.5609 31.8654 37.1107 31.4069 36.8606C31.0702 37.7725 30.703 38.6902 30.3084 39.5977C30.0435 39.8622 29.8308 40.1492 29.6206 40.4329C29.0578 41.1925 28.5124 41.9286 27.029 42.1458C27.1087 44.2445 26.6595 45.1642 26.1818 46.1422C25.9424 46.6323 25.6959 47.137 25.5052 47.812C25.129 48.2661 24.7449 48.689 24.354 49.0755C21.9365 50.3254 21.8106 50.2637 19.5529 49.1578L19.2705 49.0196C16.7392 50.2565 16.5569 50.3226 14.4101 49.2179C13.8969 48.7248 13.3951 48.1682 12.9073 47.5601C12.7294 47.0076 12.5154 46.5694 12.3068 46.1422C11.829 45.1642 11.3799 44.2445 11.4596 42.1458C9.97619 41.9286 9.43079 41.1925 8.86796 40.4329C8.72704 40.2427 8.58502 40.0511 8.42692 39.8657C7.99258 38.8826 7.59012 37.8855 7.22366 36.8951C6.76195 37.1438 6.2431 37.5963 5.51967 38.2433C5.13683 36.3008 5.30032 35.177 6.14101 33.6464C6.09011 33.4745 6.04053 33.3036 5.99231 33.1338C4.90302 33.8038 3.9399 34.613 2.41414 35.9245C3.38292 33.9582 4.05598 32.9089 5.54389 31.4259C5.52958 31.3663 5.51546 31.3069 5.50155 31.2477C5.08001 31.0957 4.70052 31.0479 4.14849 31.0383C4.40957 30.5144 4.81193 30.1817 5.21939 29.9393C4.95639 28.5898 4.81599 27.3943 4.81599 26.4419C4.81599 25.861 4.86821 25.2862 4.96862 24.721C7.12262 22.2444 8.39885 20.8517 9.81871 19.6332C9.72098 19.969 9.60541 20.2708 9.48124 20.595C9.36639 20.8949 9.24418 21.214 9.12193 21.5971L10.1054 20.9759L10.3228 22.6737C13.4698 18.2016 12.4351 13.3897 6.80306 6.56583C8.64632 10.5141 9.52983 12.6877 10.1054 16.2968L10.1071 16.3478C8.37536 18.2776 7.25458 19.6494 6.29068 21.0541C4.72348 18.9728 4.22323 16.9799 3.36621 13.4396C3.40254 17.3399 3.83632 19.3846 5.32262 22.5567C5.07346 22.9672 4.82422 23.3957 4.56557 23.8541C0.0957803 15.0052 -0.278933 4.4264 0.121743 0.019043ZM15.3337 32.9843L14.0501 30.4998L10.4475 29.8372C10.6047 32.4679 12.3109 33.4812 15.3337 32.9843ZM25.0647 30.4998L23.7811 32.9843C26.8039 33.4812 28.5101 32.4679 28.6673 29.8372L25.0647 30.4998ZM17.0031 43.4488C16.4431 43.8451 16.0974 44.3891 16.0974 44.9894C16.0974 46.2015 17.5064 47.184 19.2445 47.184C20.9825 47.184 22.3915 46.2015 22.3915 44.9894C22.3915 44.3578 22.009 43.7886 21.3966 43.3882C20.7761 43.6385 19.9837 43.7886 19.1203 43.7886C18.3291 43.7886 17.5974 43.6625 17.0031 43.4488Z" fill="white"/>
<path d="M51.5507 42.1109C53.916 42.1109 55.8674 41.3717 57.2274 40.0117C58.6171 38.6221 59.2675 36.789 59.2675 34.1872V21.0598H53.5612V34.1576C53.5612 36.0794 52.6447 37.0551 51.1959 37.0551C49.9246 37.0551 48.9785 36.3455 47.9732 35.1333L44.2774 38.6221C45.7262 40.603 47.9437 42.1109 51.5507 42.1109ZM60.2746 41.7561H66.3061L67.7844 38.0603H75.7673L77.2752 41.7561H83.425L74.6142 20.9119H69.0853L60.2746 41.7561ZM69.4697 33.5958L71.8054 27.7122L74.1116 33.5958H69.4697ZM94.0688 42.17C98.6516 42.17 101.283 40.1891 103.234 37.4986L98.9177 34.4237C97.6759 35.9316 96.4045 36.9368 94.2462 36.9368C91.3487 36.9368 89.3086 34.5124 89.3086 31.4079V31.3488C89.3086 28.333 91.3487 25.879 94.2462 25.879C96.2271 25.879 97.5872 26.8252 98.7698 28.3035L103.086 24.9625C101.253 22.4198 98.5333 20.6458 94.3053 20.6458C88.0373 20.6458 83.3954 25.3764 83.3954 31.4079V31.4671C83.3954 37.6464 88.1556 42.17 94.0688 42.17ZM105.702 41.7561H111.438V36.4046L113.537 34.0689L118.741 41.7561H125.63L117.529 29.9592L125.364 21.0598H118.563L111.438 29.4566V21.0598H105.702V41.7561ZM125.066 41.7561H131.098L132.576 38.0603H140.559L142.067 41.7561H148.217L139.406 20.9119H133.877L125.066 41.7561ZM134.261 33.5958L136.597 27.7122L138.903 33.5958H134.261ZM150.225 41.7561H165.984V36.7298H155.961V21.0598H150.225V41.7561Z" fill="white"/>
</svg>
