<svg width="46" height="43" viewBox="0 0 46 43" fill="none" xmlns="http://www.w3.org/2000/svg">
<g clip-path="url(#clip0_115_229)">
<path fill-rule="evenodd" clip-rule="evenodd" d="M27.7214 14.403C28.4964 15.3351 29.3717 16.1811 30.332 16.9259C32.4437 18.5663 34.9127 19.6984 37.5436 20.2328L38.8273 20.4323H39.1158L45.0581 21.1023H45.1879C45.3448 21.1023 45.4952 21.1638 45.6061 21.2734C45.717 21.383 45.7793 21.5317 45.7793 21.6867C45.7793 21.8417 45.717 21.9903 45.6061 22.0999C45.4952 22.2095 45.3448 22.2711 45.1879 22.2711H45.0581L39.1158 22.941H38.8273C38.3946 22.941 37.9619 23.0693 37.5436 23.1548C33.6903 23.9196 30.2215 25.9735 27.7214 28.9704C26.1757 30.8212 25.0759 32.995 24.5051 35.3276C24.3802 35.7966 24.2839 36.2726 24.2166 36.753C24.2086 36.8621 24.2086 36.9717 24.2166 37.0808L23.5098 42.6968V42.8537C23.4873 42.9984 23.4131 43.1303 23.3007 43.2256C23.1882 43.3209 23.045 43.3733 22.8969 43.3733C22.7487 43.3733 22.6055 43.3209 22.493 43.2256C22.3806 43.1303 22.3064 42.9984 22.2839 42.8537V42.6968L21.5771 37.0808V36.753C21.505 36.2541 21.4041 35.7552 21.2887 35.3276C20.7126 32.9941 19.6079 30.8204 18.0579 28.9704C15.5665 25.9635 12.0937 23.9074 8.23567 23.1548C7.81739 23.0693 7.3847 22.9981 6.952 22.941H6.66352L0.735587 22.2711H0.591357C0.434521 22.2711 0.284104 22.2095 0.173204 22.0999C0.0623036 21.9903 0 21.8417 0 21.6867C0 21.5317 0.0623036 21.383 0.173204 21.2734C0.284104 21.1638 0.434521 21.1023 0.591357 21.1023H0.735587L6.66352 20.4323H6.952L8.23567 20.2328C10.8641 19.691 13.3315 18.5596 15.4473 16.9259C16.403 16.1809 17.2736 15.3348 18.0435 14.403C19.5932 12.5581 20.698 10.3891 21.2742 8.06002C21.3896 7.57539 21.4906 7.09076 21.5627 6.63464V6.29252L22.2694 0.676501V0.519729C22.292 0.375027 22.3662 0.243052 22.4786 0.147724C22.5911 0.052395 22.7343 0 22.8824 0C23.0306 0 23.1738 0.052395 23.2863 0.147724C23.3987 0.243052 23.4729 0.375027 23.4954 0.519729V0.676501L24.2022 6.29252C24.1952 6.40645 24.1952 6.52071 24.2022 6.63464C24.2707 7.11481 24.367 7.59072 24.4906 8.06002C25.0659 10.3895 26.1708 12.5587 27.7214 14.403ZM22.832 22.1L23.207 21.7437L22.832 21.3731C22.7166 21.5014 22.5868 21.6154 22.457 21.7437L22.832 22.1Z" fill="white"/>
</g>
<defs>
<clipPath id="clip0_115_229">
<rect width="46" height="43" fill="white"/>
</clipPath>
</defs>
</svg>
