<svg width="56" height="56" viewBox="0 0 56 56" fill="none" xmlns="http://www.w3.org/2000/svg">
<g clip-path="url(#clip0_307_950)">
<path d="M17.2573 39.9836C19.2751 37.9701 19.2751 34.7056 17.2573 32.6922C15.2396 30.6787 11.9681 30.6787 9.95036 32.6922C7.9326 34.7056 7.9326 37.9701 9.95036 39.9836C11.9681 41.9971 15.2396 41.9971 17.2573 39.9836Z" fill="#2D1EE5"/>
<path d="M44.9879 24.1251C47.4559 22.6958 48.2954 19.5406 46.863 17.0778C45.4306 14.6151 42.2688 13.7773 39.8008 15.2067C37.3327 16.636 36.4932 19.7912 37.9256 22.2539C39.358 24.7167 42.5199 25.5544 44.9879 24.1251Z" fill="#2D1EE5"/>
<path d="M48.2395 29.7103C46.5756 30.673 45.6546 32.4208 45.6666 34.2122C45.6138 34.5512 45.3435 35.7852 44.1522 36.5521L41.8496 37.8855C40.3805 38.6463 38.9779 38.003 38.9779 38.003L38.9899 38.0256C37.4453 37.1517 35.49 37.0945 33.8443 38.0482C32.206 38.9974 31.2865 40.7075 31.2714 42.4703C31.2684 42.5109 31.1159 44.0176 29.7404 44.9005L27.2687 46.3319C26.5228 46.6663 25.8072 46.6558 25.2998 46.5699C25.0809 46.1029 24.8771 45.4143 25.0024 44.6037L27.4408 35.2503H27.4469C27.8878 33.5613 29.4369 32.9556 29.4369 32.9556H29.4339C29.831 32.8396 30.2205 32.6769 30.595 32.4599C33.0621 31.0301 33.9016 27.8751 32.4703 25.4132C32.2347 25.0094 31.9524 24.6493 31.6338 24.3344C31.4949 24.1567 30.7369 23.1125 30.9725 21.7083L33.3973 12.4091H33.3988C33.8397 10.7202 35.3889 10.113 35.3889 10.113H35.3858C35.7845 9.99696 36.1755 9.83273 36.55 9.61577C39.0171 8.18593 39.8566 5.03096 38.4252 2.56906C36.9924 0.107158 33.8307 -0.730552 31.3635 0.697773C29.7011 1.66054 28.7786 3.40677 28.7907 5.1982C28.7393 5.5357 28.4676 6.77569 27.2702 7.54409L24.9813 8.86996C23.5106 9.63535 22.1019 8.9905 22.1019 8.9905L22.1155 9.0131C20.5709 8.13923 18.6156 8.08197 16.9698 9.0357C15.324 9.98942 14.4121 11.6935 14.397 13.4563C14.394 13.4834 14.2475 15.0051 12.8599 15.8911L10.5785 17.2124C9.10636 17.9823 7.69462 17.3345 7.69462 17.3345C6.15303 16.4756 4.20981 16.4244 2.5731 17.3736C0.105955 18.8019 -0.733539 21.9569 0.699338 24.4188C2.13222 26.8807 5.29391 27.7184 7.76105 26.2901C9.39928 25.3409 10.3188 23.6323 10.3339 21.8695C10.3339 21.8695 10.4713 20.3282 11.8664 19.4363L14.1569 18.1104C15.5988 17.357 16.9819 17.9657 17.0302 17.9883C18.5718 18.8502 20.5165 18.9029 22.1548 17.9537C23.802 17 24.7216 15.2778 24.7276 13.506L24.7397 13.5286C24.7397 13.5286 24.8771 11.9828 26.2767 11.0923L28.5582 9.77095C29.3539 9.35361 30.1315 9.35059 30.678 9.43798C30.9015 9.91107 31.1159 10.6192 30.9815 11.4554L28.5506 20.7757C28.1082 22.4707 26.5666 23.0447 26.5666 23.0447H26.5742C26.1741 23.1623 25.78 23.3265 25.404 23.545C22.9369 24.9748 22.0974 28.1298 23.5287 30.5917C23.7613 30.9909 24.0391 31.3465 24.3516 31.6569H24.3486C24.3486 31.6569 25.2621 32.7507 25.0341 34.2679L22.5926 43.6289H22.5896C22.1789 45.2004 20.8245 45.8075 20.6298 45.8874C20.2251 46.0019 19.828 46.1676 19.4475 46.3891C16.9804 47.819 16.1409 50.9739 17.5723 53.4358C19.0051 55.8977 22.1668 56.7354 24.634 55.3071C26.2752 54.3564 27.1947 52.6418 27.2068 50.876C27.231 50.6681 27.4424 49.2759 28.7424 48.4533L31.0253 47.1304C32.4748 46.3695 33.8684 46.9888 33.9062 47.0054C35.4477 47.8672 37.391 47.9184 39.0292 46.9692C40.6765 46.0155 41.596 44.2933 41.602 42.5215L41.6156 42.5441C41.6156 42.5441 41.753 40.9937 43.1587 40.1033L45.4281 38.7895C46.6918 38.1235 47.9133 38.5062 48.2334 38.6298C49.7856 39.5292 51.762 39.5955 53.4244 38.6328C55.8915 37.2029 56.731 34.048 55.2997 31.5861C53.8683 29.1242 50.7051 28.2865 48.238 29.7148L48.2395 29.7103Z" fill="#2D1EE5"/>
</g>
<defs>
<clipPath id="clip0_307_950">
<rect width="56" height="56" fill="white"/>
</clipPath>
</defs>
</svg>
